<?xml version="1.0" standalone="no"?>
<!DOCTYPE svg PUBLIC "-//W3C//DTD SVG 20010904//EN"
 "http://www.w3.org/TR/2001/REC-SVG-20010904/DTD/svg10.dtd">
<svg version="1.0" xmlns="http://www.w3.org/2000/svg"
 width="1280.000000pt" height="1280.000000pt" viewBox="0 0 1280.000000 1280.000000"
 preserveAspectRatio="xMidYMid meet">
<metadata>
Created by potrace 1.14, written by Peter Selinger 2001-2017
</metadata>
<g transform="translate(0.000000,1280.000000) scale(0.100000,-0.100000)"
fill="#000000" stroke="none">
<path d="M4083 8681 c-5 -3 -8 -329 -8 -724 0 -630 2 -717 15 -718 8 -1 40 0
70 1 30 1 65 2 78 1 18 0 69 0 177 0 8 0 44 0 80 0 62 0 75 -1 110 -1 8 -1 30
-1 48 -1 17 0 46 -1 62 -2 17 -1 40 1 52 5 12 4 25 3 28 -1 3 -5 20 -6 38 -2
18 5 41 6 52 4 32 -6 153 -6 162 0 5 3 15 2 23 -3 7 -4 23 -5 35 0 11 4 28 4
37 -1 11 -6 19 -5 23 1 3 5 1 10 -5 10 -6 0 -9 4 -6 9 3 5 8 28 11 50 3 23 15
62 26 87 23 48 107 144 127 144 7 0 12 4 12 9 0 9 129 54 146 50 27 -5 46 2
40 16 -3 8 0 15 7 15 8 0 8 3 2 8 -12 8 -12 43 -1 61 4 6 3 11 -2 11 -10 0 -9
30 2 48 4 6 3 12 -2 12 -8 0 -7 63 2 87 3 7 2 13 -3 13 -9 0 -8 31 3 48 4 6 3
12 -1 12 -10 0 -9 53 2 69 3 6 2 11 -2 11 -12 0 -10 63 2 72 7 5 7 8 0 8 -6 0
-9 24 -7 57 5 114 5 144 -1 150 -4 3 -2 12 4 20 6 7 8 13 3 13 -11 0 -9 103 1
121 6 8 4 10 -4 4 -10 -6 -11 -3 -2 14 7 11 8 21 4 21 -4 0 -8 16 -8 35 0 19
4 35 9 35 5 0 4 6 -1 13 -5 6 -8 26 -6 42 7 65 1 70 -75 69 -38 0 -74 -4 -80
-8 -7 -4 -12 -4 -12 1 0 7 -86 9 -100 3 -3 -1 -9 -1 -15 0 -29 7 -105 5 -105
-3 0 -4 -5 -5 -11 -1 -16 9 -469 11 -469 2 0 -4 -10 -4 -22 0 -27 9 -100 8
-117 -2 -6 -4 -11 -3 -11 1 0 10 -83 9 -99 -1 -6 -4 -11 -4 -11 1 0 7 -86 9
-100 3 -3 -1 -9 -1 -15 0 -29 7 -105 5 -105 -3 0 -4 -4 -6 -9 -2 -14 8 -68 13
-78 6z m949 -451 l36 0 -1 -133 0 -134 -109 1 c-66 1 -108 -3 -108 -9 0 -7 -3
-7 -8 0 -10 14 -42 15 -44 1 0 -6 -2 -67 -2 -136 l-1 -125 -135 -3 -135 -3 1
267 c0 239 2 268 17 273 13 5 160 5 489 1z"/>
<path d="M7780 7801 c0 -4 -26 -6 -57 -4 l-58 4 0 -358 c0 -294 2 -359 14
-364 16 -6 296 -2 330 5 42 9 116 40 123 50 4 6 8 8 8 4 0 -13 71 40 118 90
26 26 56 66 67 87 11 22 24 43 28 46 5 3 8 8 6 10 -2 4 5 30 18 69 3 8 8 92
10 186 l5 172 -39 -2 c-21 -1 -50 1 -65 5 -16 4 -28 5 -28 1 0 -4 -66 -6 -147
-4 -146 3 -174 2 -243 -2 -19 -1 -47 1 -62 5 -16 4 -28 4 -28 0z"/>
<path d="M5934 7440 c-20 -8 -21 -16 -22 -132 -1 -136 -8 -198 -25 -225 -5 -7
-5 -17 -2 -23 3 -5 3 -10 -2 -10 -4 0 -14 -12 -21 -27 -12 -29 -92 -122 -92
-109 0 4 -7 0 -16 -8 -8 -9 -19 -14 -24 -11 -5 3 -10 0 -12 -5 -2 -6 -12 -13
-23 -15 -11 -2 -21 -4 -22 -5 -2 -2 -6 -3 -10 -5 -5 -1 -19 -5 -33 -9 -14 -3
-53 -8 -88 -10 -35 -2 -66 -6 -68 -9 -9 -9 -4 -611 6 -617 5 -3 104 -5 219 -5
142 1 211 -2 212 -9 0 -6 1 -278 1 -603 1 -326 4 -593 8 -593 3 0 7 -15 8 -32
5 -94 8 -108 20 -113 7 -3 10 -9 7 -15 -13 -21 81 -248 107 -258 4 -2 8 -9 8
-15 0 -19 80 -109 160 -181 25 -22 128 -86 140 -86 5 0 10 -4 10 -9 0 -9 48
-26 63 -23 4 1 7 -2 7 -8 0 -6 3 -9 8 -9 4 1 9 0 12 -1 3 -1 12 -3 20 -5 37
-7 45 -10 50 -17 3 -3 21 -9 40 -12 19 -4 46 -9 60 -11 14 -3 51 -7 82 -9 32
-3 61 -7 66 -10 12 -7 312 -2 312 5 0 3 20 6 45 5 25 -1 45 3 45 7 0 5 6 7 13
4 6 -2 20 0 29 4 15 8 17 38 17 309 l0 300 -77 -6 c-73 -6 -161 -8 -172 -4 -3
1 -25 4 -49 6 -25 3 -50 9 -57 15 -7 6 -18 8 -23 5 -5 -4 -12 -2 -16 4 -4 6
-11 8 -16 5 -5 -4 -9 -2 -9 3 0 6 -13 15 -29 20 -75 26 -150 142 -157 242 -1
19 -3 35 -5 35 -6 0 -4 857 3 861 5 3 5 11 1 17 -9 14 -12 176 -3 178 3 1 140
2 305 3 l300 1 2 313 c2 288 1 312 -15 313 -102 5 -342 2 -342 -4 0 -5 -5 -5
-12 -1 -6 4 -63 8 -127 8 l-116 1 0 290 c0 291 -3 320 -35 300 -6 -3 -10 -1
-10 5 0 6 -4 9 -9 5 -16 -9 -71 -13 -76 -4 -3 4 -18 4 -33 1 -36 -9 -124 -8
-140 2 -6 4 -17 4 -24 0 -16 -10 -158 -11 -158 -1 0 5 -5 5 -11 1 -15 -9 -150
-11 -169 -3 -8 4 -25 3 -36 -1z"/>
<path d="M2808 7044 c-4 -4 -27 -8 -51 -9 -74 -5 -128 -13 -222 -35 -27 -6
-57 -13 -65 -15 -8 -2 -35 -11 -60 -20 -25 -9 -53 -18 -64 -20 -10 -3 -24 -9
-32 -16 -8 -6 -14 -8 -14 -4 0 4 -6 2 -13 -4 -8 -6 -17 -8 -20 -4 -4 3 -7 1
-7 -5 0 -7 -3 -11 -7 -10 -5 1 -30 -9 -58 -22 -27 -13 -53 -23 -57 -22 -5 1
-8 -2 -8 -7 0 -5 -9 -13 -20 -16 -20 -6 -141 -78 -164 -96 -6 -5 -44 -34 -83
-65 -40 -30 -73 -60 -73 -66 0 -6 -3 -9 -6 -6 -5 6 -70 -57 -127 -124 -31 -37
-33 -39 -67 -88 -13 -19 -27 -37 -30 -40 -14 -13 -118 -217 -125 -245 -1 -5
-5 -17 -8 -25 -10 -26 -27 -86 -32 -109 -2 -13 -6 -30 -9 -39 -5 -18 -12 -63
-22 -147 -3 -27 -7 -51 -9 -54 -2 -2 0 -12 5 -22 6 -10 7 -20 3 -22 -7 -4 -8
-122 -2 -122 0 0 3 -18 4 -40 4 -39 12 -95 15 -105 2 -3 2 -8 2 -11 -1 -3 8
-42 19 -85 11 -43 23 -90 26 -104 3 -14 9 -29 13 -35 4 -5 13 -28 20 -50 15
-46 90 -218 99 -225 3 -3 16 -25 29 -50 22 -46 51 -96 65 -115 64 -87 113
-151 126 -165 72 -78 95 -100 102 -100 5 0 9 -7 9 -15 0 -8 3 -15 8 -15 4 0
19 -10 34 -23 15 -13 39 -32 53 -43 15 -10 36 -27 47 -36 12 -10 27 -18 35
-18 7 0 13 -4 13 -8 0 -5 12 -15 28 -23 15 -7 44 -24 65 -36 20 -13 37 -20 37
-16 0 5 4 3 8 -3 10 -15 145 -67 232 -89 70 -17 92 -21 190 -30 36 -4 74 -8
85 -9 11 -1 30 1 43 6 13 4 21 5 19 0 -3 -4 11 -6 31 -5 21 1 37 2 37 3 0 1
18 3 40 5 96 10 172 23 205 35 23 8 73 20 85 21 2 0 20 6 39 14 18 8 36 11 40
8 3 -4 6 -1 6 5 0 7 8 12 18 12 10 0 22 4 27 9 6 5 19 11 30 13 11 1 22 6 25
9 7 9 104 52 113 51 4 -1 7 1 7 6 0 4 14 13 31 21 17 8 55 29 83 47 73 48 85
57 109 78 12 10 38 30 57 45 42 31 111 101 162 162 21 24 43 51 50 59 7 8 27
37 45 65 18 27 36 55 40 60 27 34 96 191 123 280 26 87 30 107 45 205 11 74
11 194 0 202 -7 5 -7 8 0 8 10 0 11 42 1 90 -3 14 -7 41 -10 60 -3 19 -9 49
-15 67 -5 17 -7 34 -3 37 12 12 -10 5 -51 -16 -23 -12 -44 -23 -47 -24 -3 -1
-15 -5 -27 -9 -13 -4 -23 -12 -23 -18 0 -6 -2 -8 -6 -5 -3 3 -59 -21 -125 -53
-65 -33 -124 -59 -129 -59 -6 0 -10 -5 -10 -11 0 -5 -4 -8 -9 -4 -5 3 -16 -2
-24 -10 -9 -8 -20 -15 -26 -15 -5 0 -41 -16 -79 -35 -38 -19 -80 -39 -93 -45
-13 -5 -31 -14 -39 -19 -8 -5 -39 -20 -67 -32 -29 -13 -53 -27 -53 -32 0 -4
-4 -6 -9 -3 -4 3 -7 -32 -6 -77 1 -56 -3 -98 -15 -132 -9 -27 -19 -57 -21 -65
-4 -14 -8 -20 -36 -54 -6 -7 -9 -16 -6 -19 3 -3 -4 -12 -16 -19 -12 -7 -21
-17 -21 -22 0 -16 -132 -117 -160 -122 -3 0 -22 -8 -42 -17 -21 -10 -42 -17
-48 -17 -5 0 -10 -4 -10 -8 0 -4 -8 -8 -17 -8 -10 -1 -31 -4 -48 -8 -64 -16
-206 -7 -246 14 -9 5 -19 6 -23 3 -3 -3 -6 -1 -6 6 0 7 -4 9 -10 6 -5 -3 -10
-1 -10 4 0 6 -5 11 -11 11 -6 0 -23 9 -39 20 -15 11 -30 17 -34 15 -3 -3 -5
-3 -3 0 2 2 -23 32 -55 65 -57 60 -134 168 -130 183 1 4 -2 7 -8 7 -5 0 -10 5
-10 10 0 6 7 10 15 10 8 0 15 5 15 10 0 6 4 10 10 10 5 0 85 37 177 82 93 45
170 83 173 83 3 1 49 23 102 49 54 26 100 47 104 46 4 -1 10 2 13 7 5 7 117
65 131 68 5 1 170 81 304 146 43 22 83 39 88 39 5 0 16 7 25 15 8 8 19 13 24
10 5 -4 9 -1 9 4 0 6 4 11 9 11 5 0 63 26 128 57 65 32 121 56 126 55 4 -1 7
2 7 7 0 5 10 12 23 16 30 10 20 5 134 62 56 28 104 49 107 46 2 -3 9 4 15 15
8 15 6 34 -9 76 -10 31 -16 56 -13 56 3 0 -1 8 -10 18 -8 9 -16 22 -16 27 -2
20 -55 125 -63 125 -4 0 -8 7 -8 15 0 13 -82 149 -100 165 -3 3 -18 23 -35 45
-41 55 -180 195 -194 195 -6 0 -11 4 -11 9 0 14 -143 108 -227 151 -74 37
-212 88 -260 96 -23 4 -45 8 -93 18 -14 3 -56 8 -94 10 -37 2 -70 6 -72 9 -3
2 -20 1 -39 -3 -20 -4 -35 -4 -37 2 -2 5 -7 6 -10 2z m-78 -724 c8 5 21 5 31
0 9 -5 19 -7 21 -4 16 16 194 -50 229 -85 9 -9 27 -25 40 -37 41 -36 101 -119
126 -175 11 -25 9 -27 -35 -49 -26 -13 -50 -23 -54 -22 -5 1 -8 -2 -8 -8 0 -5
-5 -10 -11 -10 -6 0 -46 -18 -90 -39 -43 -22 -79 -36 -79 -33 0 4 -4 2 -8 -3
-4 -6 -32 -21 -62 -35 -30 -14 -56 -28 -58 -32 -2 -5 -9 -8 -15 -8 -7 0 -56
-22 -110 -49 -54 -28 -100 -50 -102 -50 -15 -3 -101 -48 -107 -56 -4 -5 -8 -6
-8 -2 0 5 -13 -1 -29 -12 -15 -11 -31 -18 -35 -14 -3 3 -6 1 -6 -5 0 -6 -6 -9
-13 -6 -8 3 -20 -2 -27 -11 -7 -8 -19 -15 -26 -15 -8 0 -14 -5 -14 -11 0 -5
-4 -7 -10 -4 -5 3 -20 -1 -33 -10 -19 -12 -26 -13 -34 -3 -15 19 -45 137 -38
148 3 6 2 10 -3 10 -5 0 -9 41 -10 90 0 50 4 90 8 90 5 0 7 11 5 25 -1 14 2
25 7 25 5 0 7 4 4 8 -6 10 33 94 48 104 6 4 8 8 4 8 -5 0 1 10 12 23 10 12 18
24 17 27 -1 3 20 25 48 50 27 25 56 51 63 58 8 7 18 10 23 7 5 -4 9 -2 9 2 0
18 162 98 174 85 3 -3 6 -1 6 4 0 5 10 10 23 11 35 4 56 9 63 15 3 4 16 3 28
-2 13 -4 29 -4 36 0z"/>
<path d="M7672 6832 c-2 -7 -5 -597 -6 -1312 l-1 -1298 38 -4 c20 -2 37 0 37
5 0 4 9 3 19 -3 11 -5 22 -7 24 -3 3 5 48 6 101 3 53 -3 96 -1 96 3 0 4 9 3
19 -3 11 -5 22 -7 24 -3 3 5 48 6 101 3 53 -3 96 -1 96 3 0 4 8 3 19 -2 10 -6
21 -7 25 -4 3 4 33 5 66 4 l60 -2 -3 1118 c-2 1027 -5 1156 -25 1187 -3 6 -8
20 -9 31 -2 10 -7 22 -11 25 -4 3 -13 17 -21 33 -8 15 -18 27 -23 27 -4 0 -8
5 -8 12 0 23 -106 110 -175 143 -85 40 -131 47 -304 49 -101 1 -135 -2 -139
-12z"/>
<path d="M8787 6842 c-22 -5 -21 -18 3 -42 11 -11 20 -22 20 -25 0 -8 64 -100
73 -103 4 -2 7 -10 7 -18 0 -8 3 -14 8 -14 4 0 18 -18 32 -40 14 -22 28 -40
32 -40 5 0 8 -6 8 -13 0 -8 9 -22 20 -32 11 -10 20 -24 20 -31 0 -7 3 -14 8
-16 12 -5 172 -235 172 -247 0 -6 4 -11 9 -11 5 0 20 -17 32 -37 13 -21 26
-40 29 -43 6 -5 103 -143 125 -179 6 -9 18 -23 27 -32 10 -9 15 -18 13 -21 -3
-3 4 -13 15 -23 11 -10 20 -22 20 -27 0 -5 5 -14 10 -21 6 -7 29 -37 51 -67
21 -30 42 -59 47 -65 4 -5 15 -22 24 -36 9 -14 24 -33 33 -42 8 -9 14 -18 13
-20 -2 -2 11 -20 27 -41 17 -21 28 -38 25 -39 -4 -2 20 -34 48 -62 6 -8 12
-18 12 -24 0 -5 8 -15 18 -20 9 -6 13 -11 9 -11 -8 0 1 -13 36 -51 9 -10 17
-23 17 -27 0 -5 9 -20 20 -33 28 -34 30 -37 80 -109 24 -36 48 -66 52 -68 4
-2 8 -9 8 -15 0 -7 13 -27 29 -46 16 -19 35 -46 43 -60 7 -14 20 -33 28 -41 8
-8 20 -23 25 -32 6 -9 44 -64 85 -123 41 -59 79 -116 85 -126 5 -10 13 -19 18
-19 4 0 5 -4 2 -10 -3 -5 1 -10 9 -10 9 0 16 -5 16 -11 0 -9 34 -62 73 -114
62 -83 77 -105 77 -115 0 -6 7 -13 15 -16 8 -4 15 -12 15 -19 0 -7 3 -15 8
-17 4 -1 24 -29 46 -60 39 -57 61 -75 71 -58 3 5 11 7 18 5 27 -10 87 -12 87
-2 0 6 5 5 13 -1 8 -7 18 -7 27 -2 9 5 19 5 27 -2 9 -7 13 -7 13 2 0 9 4 9 13
2 7 -6 18 -8 24 -4 6 4 45 5 87 2 42 -3 76 -1 76 3 0 4 9 3 19 -3 11 -5 22 -7
24 -3 3 5 66 6 141 3 75 -3 136 -1 136 4 0 5 6 4 13 -2 7 -6 18 -7 25 -3 8 4
24 6 38 3 19 -3 23 -1 18 12 -3 9 -10 16 -15 16 -5 0 -9 6 -9 13 0 8 -9 22
-20 32 -11 10 -20 22 -20 26 0 5 -7 17 -14 26 -35 43 -126 175 -126 184 0 5
-3 9 -8 9 -4 0 -18 18 -32 40 -14 22 -28 40 -32 40 -5 0 -8 7 -8 15 0 8 -4 15
-10 15 -5 0 -10 7 -10 15 0 8 -4 15 -10 15 -5 0 -10 6 -10 14 0 8 -4 16 -8 18
-5 2 -28 32 -52 68 -24 36 -46 67 -49 70 -3 3 -22 28 -41 55 -19 28 -38 52
-42 53 -4 2 -8 10 -8 17 0 8 -6 20 -13 27 -8 7 -35 45 -62 83 -27 39 -52 72
-57 73 -4 2 -8 10 -8 18 0 8 -5 14 -12 14 -6 0 -8 3 -5 6 4 4 -3 15 -15 25
-11 11 -17 19 -12 19 5 0 4 4 -2 8 -5 4 -35 43 -65 87 -30 44 -57 82 -61 83
-5 2 -8 8 -8 14 0 5 -6 15 -12 22 -7 8 -20 24 -28 36 -8 12 -20 28 -27 35 -7
7 -9 15 -6 19 4 3 1 6 -5 6 -6 0 -17 11 -24 23 -21 39 -84 130 -107 156 -12
13 -21 28 -21 32 0 4 -6 14 -13 21 -7 7 -28 36 -47 63 -18 28 -37 52 -40 55
-4 3 -9 12 -13 20 -4 8 -25 40 -47 70 -41 55 -86 119 -105 148 -5 9 -18 25
-27 36 -10 11 -18 23 -18 28 0 4 -8 17 -17 27 -33 37 -43 50 -43 61 0 5 -4 10
-10 10 -5 0 -10 7 -10 15 0 8 -4 15 -10 15 -5 0 -10 6 -10 14 0 8 -4 16 -8 18
-4 2 -23 26 -42 53 -19 28 -37 52 -40 55 -3 3 -9 12 -15 22 -5 9 -35 51 -66
95 -31 43 -57 83 -59 88 -2 6 -10 16 -17 23 -7 8 -27 35 -45 60 -17 26 -35 49
-40 50 -4 2 -8 10 -8 18 0 8 -10 14 -22 15 -72 3 -787 3 -801 1z"/>
<path d="M10759 6840 c-8 -5 -28 -11 -45 -14 -16 -2 -30 -5 -31 -6 -2 -2 -6
-3 -10 -5 -5 -1 -21 -7 -36 -13 -16 -7 -30 -12 -32 -12 -28 0 -215 -156 -215
-178 0 -5 -8 -17 -17 -28 -10 -11 -36 -46 -58 -79 -22 -33 -44 -64 -48 -70 -4
-5 -19 -25 -32 -44 l-24 -34 41 -61 c23 -33 45 -62 50 -64 4 -2 8 -8 8 -13 0
-6 4 -15 10 -22 47 -57 60 -76 60 -86 0 -6 4 -11 9 -11 5 0 12 -8 15 -18 4
-10 14 -27 24 -38 29 -32 82 -112 82 -122 0 -5 7 -12 15 -16 8 -3 19 -16 24
-28 9 -22 16 -33 61 -88 l20 -25 25 30 c14 17 25 36 25 43 0 7 5 10 10 7 6 -3
10 -2 10 4 0 11 54 93 82 125 10 11 20 28 24 38 3 10 9 18 13 18 4 0 16 16 27
35 10 19 22 35 26 35 5 0 8 5 8 10 0 11 10 24 43 61 9 10 14 19 10 19 -5 0 -3
4 3 8 6 4 25 30 44 57 18 28 42 60 53 73 11 12 17 22 14 22 -4 0 2 10 12 23
21 24 59 77 145 202 30 44 64 90 76 103 11 12 18 22 15 22 -4 0 7 18 24 39 17
21 31 42 31 46 0 3 7 13 15 21 37 37 24 39 -275 39 -159 0 -290 -4 -290 -9 0
-5 -6 -4 -13 2 -7 6 -18 7 -28 2z"/>
<path d="M9470 5303 c-23 -36 -46 -71 -51 -77 -5 -6 -23 -29 -39 -51 -16 -22
-34 -45 -40 -52 -5 -7 -10 -15 -10 -18 0 -5 -70 -105 -110 -157 -12 -15 -21
-30 -20 -33 0 -3 -7 -13 -16 -22 -9 -10 -54 -72 -99 -138 -46 -66 -88 -124
-92 -130 -5 -5 -19 -27 -32 -47 -12 -21 -28 -38 -33 -38 -6 0 -9 -3 -5 -6 3
-3 1 -11 -4 -18 -27 -31 -99 -137 -99 -145 0 -5 -4 -11 -8 -13 -4 -1 -23 -25
-42 -53 -19 -27 -41 -56 -47 -63 -7 -7 -13 -15 -13 -16 0 -2 30 -4 67 -5 37
-1 70 -4 75 -7 4 -3 8 0 8 6 0 7 6 8 19 0 11 -5 22 -7 24 -3 3 5 48 6 101 3
53 -3 96 -1 96 3 0 4 8 3 19 -2 10 -6 21 -8 24 -5 2 3 51 7 108 9 122 4 160 8
177 19 7 4 12 4 12 -1 0 -4 4 -3 8 2 4 6 32 23 63 38 31 15 69 38 85 52 65 57
104 96 104 105 0 6 5 10 10 10 6 0 10 7 10 15 0 8 3 15 8 15 4 1 23 25 42 55
19 30 38 55 43 55 4 0 7 5 7 11 0 9 46 76 80 116 5 7 10 17 10 23 0 5 4 10 9
10 18 0 18 39 0 56 -10 9 -19 21 -19 25 0 5 -8 18 -17 29 -10 11 -17 24 -17
28 1 4 -7 13 -17 20 -11 7 -19 19 -19 27 0 7 -4 15 -8 17 -7 2 -47 57 -112
153 -56 83 -74 105 -83 105 -6 0 -7 3 -4 6 7 8 -31 65 -75 115 -10 10 -18 24
-18 29 0 24 -20 5 -60 -57z"/>
</g>
</svg>
